<svg width="33" height="143" viewBox="0 0 33 143" fill="none" xmlns="http://www.w3.org/2000/svg">
<mask id="path-1-outside-1_42_34" maskUnits="userSpaceOnUse" x="-0.501221" y="0.17334" width="34" height="143" fill="black">
<rect fill="white" x="-0.501221" y="0.17334" width="34" height="143"/>
<path d="M26.3467 142.026C2.65754 99.228 -5.08516 49.3173 4.51267 1.27989L11.2979 2.6554C2.02539 49.0646 9.50565 97.2836 32.3919 138.631L26.3467 142.026Z"/>
</mask>
<path d="M26.3467 142.026C2.65754 99.228 -5.08516 49.3173 4.51267 1.27989L11.2979 2.6554C2.02539 49.0646 9.50565 97.2836 32.3919 138.631L26.3467 142.026Z" fill="white"/>
<path d="M26.3467 142.026C2.65754 99.228 -5.08516 49.3173 4.51267 1.27989L11.2979 2.6554C2.02539 49.0646 9.50565 97.2836 32.3919 138.631L26.3467 142.026Z" stroke="white" stroke-width="0.664461" mask="url(#path-1-outside-1_42_34)"/>
</svg>
