<svg width="108" height="75" viewBox="0 0 108 75" fill="none" xmlns="http://www.w3.org/2000/svg">
<mask id="path-1-outside-1_42_27" maskUnits="userSpaceOnUse" x="-0.501221" y="0.17334" width="108" height="75" fill="black">
<rect fill="white" x="-0.501221" y="0.17334" width="108" height="75"/>
<path d="M0.527365 69.7719C27.4655 36.5397 64.0458 12.624 105.148 1.37261L106.963 8.10029C67.2541 18.9703 31.9136 42.0754 5.88853 74.1812L0.527365 69.7719Z"/>
</mask>
<path d="M0.527365 69.7719C27.4655 36.5397 64.0458 12.624 105.148 1.37261L106.963 8.10029C67.2541 18.9703 31.9136 42.0754 5.88853 74.1812L0.527365 69.7719Z" fill="white"/>
<path d="M0.527365 69.7719C27.4655 36.5397 64.0458 12.624 105.148 1.37261L106.963 8.10029C67.2541 18.9703 31.9136 42.0754 5.88853 74.1812L0.527365 69.7719Z" stroke="white" stroke-width="0.664461" mask="url(#path-1-outside-1_42_27)"/>
</svg>
