<svg width="208" height="36" viewBox="0 0 208 36" fill="none" xmlns="http://www.w3.org/2000/svg">
<mask id="path-1-outside-1_43_39" maskUnits="userSpaceOnUse" x="-0.501221" y="0.17334" width="209" height="36" fill="black">
<rect fill="white" x="-0.501221" y="0.17334" width="209" height="36"/>
<path d="M207.067 6.65601C175.869 25.3421 140.291 35.3145 103.996 35.5465C67.7 35.7784 31.9991 26.2615 0.568727 7.97571L4.03041 1.93865C34.3954 19.6047 68.8863 28.799 103.952 28.5749C139.017 28.3508 173.389 18.7164 203.529 0.66368L207.067 6.65601Z"/>
</mask>
<path d="M207.067 6.65601C175.869 25.3421 140.291 35.3145 103.996 35.5465C67.7 35.7784 31.9991 26.2615 0.568727 7.97571L4.03041 1.93865C34.3954 19.6047 68.8863 28.799 103.952 28.5749C139.017 28.3508 173.389 18.7164 203.529 0.66368L207.067 6.65601Z" fill="white"/>
<path d="M207.067 6.65601C175.869 25.3421 140.291 35.3145 103.996 35.5465C67.7 35.7784 31.9991 26.2615 0.568727 7.97571L4.03041 1.93865C34.3954 19.6047 68.8863 28.799 103.952 28.5749C139.017 28.3508 173.389 18.7164 203.529 0.66368L207.067 6.65601Z" stroke="white" stroke-width="0.664461" mask="url(#path-1-outside-1_43_39)"/>
</svg>
