<svg width="110" height="78" viewBox="0 0 110 78" fill="none" xmlns="http://www.w3.org/2000/svg">
<mask id="path-1-outside-1_43_37" maskUnits="userSpaceOnUse" x="0.498779" y="0.17334" width="109" height="77" fill="black">
<rect fill="white" x="0.498779" y="0.17334" width="109" height="77"/>
<path d="M3.01649 0.864095C44.9299 12.745 81.9757 37.8098 108.746 72.3995L103.287 76.6858C77.4245 43.2686 41.6343 19.0534 1.14157 7.57512L3.01649 0.864095Z"/>
</mask>
<path d="M3.01649 0.864095C44.9299 12.745 81.9757 37.8098 108.746 72.3995L103.287 76.6858C77.4245 43.2686 41.6343 19.0534 1.14157 7.57512L3.01649 0.864095Z" fill="white"/>
<path d="M3.01649 0.864095C44.9299 12.745 81.9757 37.8098 108.746 72.3995L103.287 76.6858C77.4245 43.2686 41.6343 19.0534 1.14157 7.57512L3.01649 0.864095Z" stroke="white" stroke-width="0.664461" mask="url(#path-1-outside-1_43_37)"/>
</svg>
