<svg width="31" height="141" viewBox="0 0 31 141" fill="none" xmlns="http://www.w3.org/2000/svg">
<mask id="path-1-outside-1_43_38" maskUnits="userSpaceOnUse" x="0.498779" y="-0.82666" width="30" height="142" fill="black">
<rect fill="white" x="0.498779" y="-0.82666" width="30" height="142"/>
<path d="M24.8821 0.538527C35.4587 47.6986 29.2045 97.1043 7.21763 140.082L1.0652 136.888C22.3068 95.3675 28.349 47.6363 18.131 2.07474L24.8821 0.538527Z"/>
</mask>
<path d="M24.8821 0.538527C35.4587 47.6986 29.2045 97.1043 7.21763 140.082L1.0652 136.888C22.3068 95.3675 28.349 47.6363 18.131 2.07474L24.8821 0.538527Z" fill="white"/>
<path d="M24.8821 0.538527C35.4587 47.6986 29.2045 97.1043 7.21763 140.082L1.0652 136.888C22.3068 95.3675 28.349 47.6363 18.131 2.07474L24.8821 0.538527Z" stroke="white" stroke-width="0.664461" mask="url(#path-1-outside-1_43_38)"/>
</svg>
